<?xml version="1.0" encoding="utf-8"?>
<!-- Generator: Adobe Illustrator 24.0.0, SVG Export Plug-In . SVG Version: 6.00 Build 0)  -->
<svg version="1.1" id="Layer_1" xmlns:serif="http://www.serif.com/"
	 xmlns="http://www.w3.org/2000/svg" xmlns:xlink="http://www.w3.org/1999/xlink" x="0px" y="0px" viewBox="0 0 456 456"
	 style="enable-background:new 0 0 456 456;" xml:space="preserve">
<style type="text/css">
	.st0{fill:#FFFFFF;}
	.st1{fill:url(#SVGID_1_);}
	.st2{fill:url(#SVGID_2_);}
	.st3{fill:url(#SVGID_3_);}
	.st4{fill:url(#SVGID_4_);}
	.st5{fill:url(#SVGID_5_);}
	.st6{fill:url(#SVGID_6_);}
	.st7{fill:url(#SVGID_7_);}
	.st8{fill:url(#SVGID_8_);}
	.st9{fill:url(#SVGID_9_);}
	.st10{fill:url(#SVGID_10_);}
	.st11{fill:url(#SVGID_11_);}
	.st12{fill:url(#SVGID_12_);}
</style>
<g>
	<circle class="st0" cx="229.4" cy="227.6" r="116.6"/>
	<g>
		
			<linearGradient id="SVGID_1_" gradientUnits="userSpaceOnUse" x1="247.1481" y1="347.4378" x2="272.3241" y2="206.9399" gradientTransform="matrix(1 0 0 -1 0 458)">
			<stop  offset="0" style="stop-color:#E9D700"/>
			<stop  offset="0.4975" style="stop-color:#FF8E00"/>
			<stop  offset="1" style="stop-color:#FF2F15"/>
		</linearGradient>
		<path class="st1" d="M342.2,197.8c-19.2-26.1-37.9,0.2-45.4,9.8c-7.8,10-14.4,14.1-21.7,3c-7.3-11.1-18.2-32-25.2-45
			c-13.5-26.9-39.8-60.8-79.7-40.6c13.7-7.7,29.2-12.7,45.6-14.4c4-0.4,7.9-0.6,12-0.6c5,0,9.9,0.3,14.8,0.9
			c30.2,3.8,56.9,19,75.6,41.1c5,5.9,9.5,12.4,13.2,19.3C336.2,179.6,339.8,188.5,342.2,197.8z"/>
		
			<linearGradient id="SVGID_2_" gradientUnits="userSpaceOnUse" x1="161.377" y1="122.5187" x2="328.1348" y2="264.3713" gradientTransform="matrix(1 0 0 -1 0 458)">
			<stop  offset="0" style="stop-color:#00F4FF"/>
			<stop  offset="0.4975" style="stop-color:#00B1FF"/>
			<stop  offset="1" style="stop-color:#176FE9"/>
		</linearGradient>
		<path class="st2" d="M342.2,258.3c-8.8,32.2-30.5,59-59.3,74.2c-8.4,4.4-17.4,7.9-26.9,10.2c-8.9,2.2-18.3,3.3-27.8,3.3
			c-14.8,0-28.9-2.7-41.9-7.7c-14.5-5.4-27.6-13.7-38.7-24.1c-13.4-12.4-23.8-27.9-30.2-45.4c24.4,54.5,78.8,51.8,92.7,1.8
			c3.9-12.8,6.3-35.1,12.8-53.4c9.6-27,21.3-4.7,34.9,21.9c13.6,26.6,30.6,30.7,49,1.2C324.8,210.9,348.8,233.9,342.2,258.3z"/>
		
			<linearGradient id="SVGID_3_" gradientUnits="userSpaceOnUse" x1="187.4218" y1="342.3108" x2="160.3508" y2="58.6033" gradientTransform="matrix(1 0 0 -1 0 458)">
			<stop  offset="0" style="stop-color:#AE24FE"/>
			<stop  offset="0.4926" style="stop-color:#662AED"/>
			<stop  offset="1" style="stop-color:#0026BF"/>
		</linearGradient>
		<path class="st3" d="M250,165.5c-0.2-0.4-0.4-0.7-0.6-1.1c-10.3-18.5-20.3-22.2-33-9.8c-1.3,1.3-2.8,2.9-4.4,4.6
			c-4.6,5.2-10.5,12.4-16.6,20.7c-13.3,18.1-28,41.5-35,61.4c-4.8,13.6-3.6,25.5,0.8,34.4c2.6,5.3,6.4,9.5,10.6,12.4l0,0
			c13,8.9,31.2,5.4,38.1-17.6c-13.8,50-68,52.8-92.5-1.5c-0.1-0.1-0.1-0.2-0.1-0.2c0-0.1-0.1-0.1-0.1-0.1
			c-1.9-5.3-3.6-10.8-4.7-16.4c0-0.1,0-0.1-0.1-0.2V252c-1.4-6.6-2.2-13.5-2.4-20.4l0,0c-0.1-1.3-0.1-2.6-0.1-3.9
			c0-29.2,10.6-56,28.2-76.6l0.1-0.1c6.2-7.2,13.2-13.6,20.9-19.3l0,0c3.5-2.5,7.1-4.9,10.9-6.9l0.2-0.1
			c39.3-19.8,65.5,12.8,79.1,39.5C249.6,164.8,249.8,165.2,250,165.5z"/>
		
			<linearGradient id="SVGID_4_" gradientUnits="userSpaceOnUse" x1="161.4838" y1="88.3283" x2="328.2425" y2="230.1819" gradientTransform="matrix(1 0 0 -1 0 458)">
			<stop  offset="0" style="stop-color:#00F4FF"/>
			<stop  offset="0.4975" style="stop-color:#00B1FF"/>
			<stop  offset="1" style="stop-color:#176FE9"/>
		</linearGradient>
		<path class="st4" d="M320.7,288.2c-7.3,17.4-14.3,27.9-37.8,44.3c-8.4,4.4-17.4,7.9-26.9,10.2c-8.9,2.2-18.3,3.3-27.8,3.3
			c-14.8,0-28.9-2.7-41.9-7.7c-14.5-5.4-27.6-13.7-38.7-24.1c43.1,26,81.9,0.8,96.4-34.2c8-19.1,14.1-7.3,21.1-1.7
			c7,5.7,15.4,11.1,31.7-3C313.1,261.4,328.3,270.1,320.7,288.2z"/>
		
			<linearGradient id="SVGID_5_" gradientUnits="userSpaceOnUse" x1="144.9044" y1="50.5161" x2="311.6629" y2="192.3695" gradientTransform="matrix(1 0 0 -1 0 458)">
			<stop  offset="0" style="stop-color:#00F4FF"/>
			<stop  offset="0.4975" style="stop-color:#00B1FF"/>
			<stop  offset="1" style="stop-color:#176FE9"/>
		</linearGradient>
		<path class="st5" d="M282.8,318c-5.6,10-10,18.1-26.8,24.7c-8.9,2.2-18.3,3.3-27.8,3.3c-14.8,0-28.9-2.7-41.9-7.7
			c16.2,2,46.9,1.9,72.4-26.2C277.7,291.1,289.8,305.5,282.8,318z"/>
		
			<linearGradient id="SVGID_6_" gradientUnits="userSpaceOnUse" x1="178.3993" y1="376.6096" x2="151.3284" y2="92.9038" gradientTransform="matrix(1 0 0 -1 0 458)">
			<stop  offset="0" style="stop-color:#AE24FE"/>
			<stop  offset="0.4926" style="stop-color:#662AED"/>
			<stop  offset="1" style="stop-color:#0026BF"/>
		</linearGradient>
		<path class="st6" d="M171.9,288.2L171.9,288.2c-4.3-2.9-8-7.1-10.7-12.4c-30.5,22.6-47.4-20.1-48.7-23.3
			c1.2,5.6,2.8,11.2,4.7,16.4c0,0,0,0,0.1,0.1c0,0.1,0.1,0.1,0.1,0.2c24.4,54.2,78.6,51.4,92.5,1.5C203.1,293.6,185,297,171.9,288.2
			z"/>
		
			<linearGradient id="SVGID_7_" gradientUnits="userSpaceOnUse" x1="139.4274" y1="296.8172" x2="112.3563" y2="13.1099" gradientTransform="matrix(1 0 0 -1 0 458)">
			<stop  offset="0" style="stop-color:#AE24FE"/>
			<stop  offset="0.4926" style="stop-color:#662AED"/>
			<stop  offset="1" style="stop-color:#0026BF"/>
		</linearGradient>
		<path class="st7" d="M158.6,167.5c-12.7,14.4-25.5,33.6-23,60.3c2,21.2-22.2,26.9-25.5,4.1l0,0c-0.1-1.3-0.1-2.6-0.1-3.9
			c0-29.2,10.6-56,28.2-76.6l0.1-0.1C153.9,136.3,172.2,152.1,158.6,167.5z"/>
		
			<linearGradient id="SVGID_8_" gradientUnits="userSpaceOnUse" x1="210.8093" y1="373.5181" x2="183.738" y2="89.8077" gradientTransform="matrix(1 0 0 -1 0 458)">
			<stop  offset="0" style="stop-color:#AE24FE"/>
			<stop  offset="0.4926" style="stop-color:#662AED"/>
			<stop  offset="1" style="stop-color:#0026BF"/>
		</linearGradient>
		<path class="st8" d="M250,165.5c-0.2-0.4-0.4-0.7-0.6-1.1c-10.3-18.5-20.3-22.2-33-9.8c-1.3,1.3-2.8,2.9-4.4,4.6
			c-4.6,5.2-10.5,12.4-16.6,20.7c7.1-34.1-14.9-54.1-36-47.9c3.5-2.5,7.1-4.9,10.9-6.9l0.2-0.1c39.3-19.8,65.5,12.8,79.1,39.5
			C249.6,164.8,249.8,165.2,250,165.5z"/>
		
			<linearGradient id="SVGID_9_" gradientUnits="userSpaceOnUse" x1="264.3818" y1="369.995" x2="289.5586" y2="229.493" gradientTransform="matrix(1 0 0 -1 0 458)">
			<stop  offset="0" style="stop-color:#E9D700"/>
			<stop  offset="0.4975" style="stop-color:#FF8E00"/>
			<stop  offset="1" style="stop-color:#FF2F15"/>
		</linearGradient>
		<path class="st9" d="M318.4,152c-18.6-22.2-45.4-37.3-75.6-41.1c-4.8-0.6-9.8-0.9-14.8-0.9c-4.1,0-8.1,0.2-12,0.6
			c18.2,5.3,38.6,21.8,58.6,66.4c5.3,11.7,14.7,10.4,21.9,3c5.4-5.4,19.1-22.7,35-8.8C327.8,164.4,323.4,157.9,318.4,152z"/>
		
			<linearGradient id="SVGID_10_" gradientUnits="userSpaceOnUse" x1="267.4327" y1="400.0677" x2="292.6086" y2="259.5707" gradientTransform="matrix(1 0 0 -1 0 458)">
			<stop  offset="0" style="stop-color:#E9D700"/>
			<stop  offset="0.4975" style="stop-color:#FF8E00"/>
			<stop  offset="1" style="stop-color:#FF2F15"/>
		</linearGradient>
		<path class="st10" d="M318.4,152c-10.6-5.9-18.6-1.1-24.6,2.9c-6.2,4.1-11.1,5.2-16.6-7.7c-10.1-23.3-23.4-32.5-34.4-36.4
			C273,114.7,299.8,129.8,318.4,152z"/>
		
			<linearGradient id="SVGID_11_" gradientUnits="userSpaceOnUse" x1="187.4346" y1="436.3885" x2="160.3635" y2="152.6803" gradientTransform="matrix(1 0 0 -1 0 458)">
			<stop  offset="0" style="stop-color:#AE24FE"/>
			<stop  offset="0.4926" style="stop-color:#662AED"/>
			<stop  offset="1" style="stop-color:#0026BF"/>
		</linearGradient>
		<path class="st11" d="M210,270.6c-13.8,50-68,52.8-92.5-1.5c2.1,3.7,24.6,40.6,54.4,19l0,0C185,297,203.1,293.6,210,270.6z"/>
		
			<linearGradient id="SVGID_12_" gradientUnits="userSpaceOnUse" x1="221.2523" y1="433.396" x2="194.1813" y2="149.6887" gradientTransform="matrix(1 0 0 -1 0 458)">
			<stop  offset="0" style="stop-color:#AE24FE"/>
			<stop  offset="0.4926" style="stop-color:#662AED"/>
			<stop  offset="1" style="stop-color:#0026BF"/>
		</linearGradient>
		<path class="st12" d="M249.4,164.4L249.4,164.4c-10.4-18.5-20.3-22.2-33-9.8c-1.3,1.3-2.8,2.9-4.4,4.6
			c0.6-26.5-26.6-36.6-41.9-34.3l0.2-0.1C209.6,105.2,235.9,137.8,249.4,164.4z"/>
	</g>
</g>
</svg>
